<svg xmlns="http://www.w3.org/2000/svg" viewBox="0 0 88 92" width="88" height="92">
	<style>
		tspan { white-space:pre }
		.shp0 { fill: #bbedff } 
	</style>
	<path id="&amp;" class="shp0" d="M69.43 72.4C72.63 68.44 75.49 63.89 78.02 58.75C80.54 53.61 82.52 48.34 83.96 42.94L64.87 42.94C62.79 50.3 60.33 56.32 57.49 61L40.45 44.38C46.61 40.82 51.07 37.07 53.83 33.12C56.59 29.18 57.97 24.83 57.97 20.07C57.97 14.27 55.74 9.64 51.28 6.18C46.82 2.72 40.87 0.99 33.43 0.99C25.63 0.99 19.4 2.85 14.74 6.57C10.08 10.29 7.75 15.19 7.75 21.27C7.75 24.99 8.43 28.42 9.79 31.56C11.15 34.71 13.33 38 16.33 41.44C10.45 44.8 6.3 48.41 3.88 52.27C1.46 56.13 0.25 60.8 0.25 66.28C0.25 73.92 3.11 79.98 8.83 84.46C14.55 88.94 22.29 91.18 32.05 91.18C41.69 91.18 50.33 88.52 57.97 83.2L64.87 89.98L87.5 89.98L69.43 72.4ZM21.52 57.88C22.86 55.96 24.69 54.12 27.01 52.36L46.93 72.16C42.89 74.6 38.35 75.82 33.31 75.82C29.27 75.82 25.96 74.8 23.38 72.76C20.8 70.72 19.51 67.98 19.51 64.54C19.51 62.02 20.18 59.8 21.52 57.88ZM38.29 28.5C36.45 30.36 33.81 32.25 30.37 34.17C26.57 29.93 24.67 26.05 24.67 22.53C24.67 20.17 25.44 18.35 26.98 17.07C28.52 15.79 30.63 15.15 33.31 15.15C35.59 15.15 37.45 15.76 38.89 16.98C40.33 18.2 41.05 19.87 41.05 21.99C41.05 24.47 40.13 26.64 38.29 28.5Z" />
</svg>