<svg xmlns="http://www.w3.org/2000/svg" viewBox="0 0 106 114" width="106" height="114">
	<style>
		tspan { white-space:pre }
		.shp0 { fill: #545454 } 
		.shp1 { fill: #d6d6d6 } 
		.shp2 { opacity: 0.502;fill: #b0b0b0 } 
		.shp3 { fill: #fd8d00 } 
		.shp4 { fill: #eeeeee } 
		.shp5 { fill: #fdcd0d } 
		.shp6 { opacity: 0.922;fill: #fdb705 } 
		.shp7 { fill: #00bfc0 } 
		.shp8 { fill: #8b8b8b } 
		.shp9 { fill: #ffffff } 
	</style>
	<g id="Lamp">
		<path id="Path" class="shp0" d="M3.65,113l83.06,-0.28l-7.37,-9.01h-67.18z" />
		<path id="Compound Shape" class="shp1" d="M16.52 56.62L55.53 20.06L50.43 14.99L10.62 51.9C13.1 52.74 15.18 54.43 16.52 56.62ZM42.77 105.4L52.98 105.4L16.34 68.27C14.9 70.48 12.67 72.15 10.05 72.88L42.77 105.4Z" />
		<path id="Ellipse" class="shp1" d="M7.06,69.06c3.76,0 6.8,-3.03 6.8,-6.76c0,-3.73 -3.05,-6.76 -6.8,-6.76c-3.76,0 -6.8,3.03 -6.8,6.76c0,3.73 3.05,6.76 6.8,6.76z" />
		<path id="Path" class="shp2" d="M27.46,36.11l11.91,-1.69l17.01,-16.05l-2.55,-7.61z" />
		<path id="Ellipse" class="shp3" d="M92.16,33.49c9.06,-17.22 15,-32.09 13.18,-33.05c-1.82,-0.96 -10.69,12.39 -19.73,29.64c-8.94,17.07 -14.66,31.53 -12.86,32.46c1.79,0.93 10.45,-12 19.41,-29.04z" />
		<path id="Ellipse" class="shp4" d="M96.14,34.98c2.25,-4.05 0.35,-9.28 -4.05,-11.58c-4.4,-2.3 -9.72,-0.83 -11.86,3.28c-2.14,4.1 -1.41,11.72 2.98,14c4.38,2.28 9.13,1.15 12.94,-5.7z" />
		<path id="Path" class="shp5" d="M105.18,0.11l-29.99,13.27l-23.11,-8.51l-7.14,14.03l20.14,14.02l7.2,29.37z" />
		<path id="Path" class="shp6" d="M51.74,5.25l11.9,13.27l11.79,-5.33z" />
		<path id="Rectangle" class="shp7" d="M65.73,113h6.8v-5.07h-6.8z" />
		<path id="Path" class="shp8" d="M63.18,107.93l-22.96,-19.43c0,0 -19.28,19.59 -18.71,19.59c0.57,0 41.67,-0.16 41.67,-0.16z" />
		<path id="Ellipse" class="shp9" d="M40.22,100.33c1.41,0 2.55,-1.13 2.55,-2.54c0,-1.4 -1.14,-2.53 -2.55,-2.53c-1.41,0 -2.55,1.14 -2.55,2.53c0,1.4 1.14,2.54 2.55,2.54z" />
		<path id="Path" class="shp2" d="M30.87,82.58l1.7,13.52l5.95,-5.92z" />
	</g>
</svg>