<svg xmlns="http://www.w3.org/2000/svg" viewBox="0 0 95 116" width="95" height="116">
	<style>
		tspan { white-space:pre }
		.shp0 { fill: #b25900 } 
		.shp1 { fill: #00bfc0 } 
		.shp2 { fill: #48cebb } 
		.shp3 { fill: #c76300 } 
	</style>
	<g id="Tree">
		<path id="Path" class="shp0" d="M60.33,67.92l-8.26,16.55h-6.83c3.75,20.53 -8.11,31.53 -8.11,31.53l31.39,-0.05c-8.96,-10.93 -8.19,-48.03 -8.19,-48.03z" />
		<path id="Path" class="shp1" d="M85.5,22.59c-28.46,5.67 -30.57,17.59 -30.57,17.59c-3.88,8.94 -2.06,21.03 -2.06,21.03c5.37,-1.81 9.83,-7.09 9.83,-7.09c4.36,-5.96 7.47,-14.98 7.47,-14.98c-1.77,12.81 -5.11,16.95 -5.11,16.95c-3.51,4.37 -9.83,7.09 -9.83,7.09c8.95,2.13 15.73,-2.36 15.73,-2.36c6.7,-3.29 7.86,-13.4 7.86,-13.4z" />
		<path id="Path" class="shp2" d="M70.95,4.86c-15.23,3.04 -16.36,9.43 -16.36,9.43c-2.08,4.79 -1.1,11.28 -1.1,11.28c2.87,-0.97 5.26,-3.8 5.26,-3.8c2.33,-3.2 4,-8.03 4,-8.03c-0.95,6.87 -2.74,9.09 -2.74,9.09c-1.88,2.34 -5.26,3.8 -5.26,3.8c4.79,1.14 8.42,-1.27 8.42,-1.27c3.58,-1.76 4.21,-7.18 4.21,-7.18z" />
		<path id="Path" class="shp1" d="M91,67.04c-9.9,-5.67 -13.58,-2.65 -13.58,-2.65c-3.45,1.68 -6.08,5.82 -6.08,5.82c2.05,0.86 4.74,0.43 4.74,0.43c2.84,-0.67 6.09,-2.59 6.09,-2.59c-3.85,3.43 -5.91,3.81 -5.91,3.81c-2.18,0.41 -4.75,-0.43 -4.75,-0.43c2.07,3.03 5.26,3.45 5.26,3.45c2.85,0.77 5.84,-2.03 5.84,-2.03z" />
		<path id="Path" class="shp1" d="M83.84,12.2c-7.49,-1.63 -9.29,1.03 -9.29,1.03c-1.91,1.77 -2.87,4.98 -2.87,4.98c1.47,0.16 3.13,-0.66 3.13,-0.66c1.72,-1 3.47,-2.91 3.47,-2.91c-1.85,3.02 -3.13,3.69 -3.13,3.69c-1.34,0.7 -3.15,0.66 -3.15,0.66c1.88,1.61 4.04,1.26 4.04,1.26c2.02,-0.05 3.44,-2.53 3.44,-2.53z" />
		<path id="Path" class="shp2" d="M94.84,48.2c-7.49,-1.63 -9.29,1.03 -9.29,1.03c-1.91,1.77 -2.87,4.98 -2.87,4.98c1.47,0.16 3.13,-0.66 3.13,-0.66c1.72,-1 3.47,-2.91 3.47,-2.91c-1.85,3.02 -3.13,3.69 -3.13,3.69c-1.34,0.7 -3.15,0.66 -3.15,0.66c1.88,1.61 4.04,1.26 4.04,1.26c2.02,-0.05 3.44,-2.53 3.44,-2.53z" />
		<path id="Path" class="shp1" d="M5.03,50.72c0,0 1.42,2.48 3.44,2.53c0,0 2.16,0.35 4.04,-1.26c0,0 -1.81,0.05 -3.15,-0.66c0,0 -1.27,-0.66 -3.13,-3.69c0,0 1.75,1.91 3.47,2.92c0,0 1.66,0.82 3.13,0.66c0,0 -0.96,-3.21 -2.87,-4.98c0,0 -1.8,-2.66 -9.29,-1.03z" />
		<path id="Path" class="shp1" d="M48.21,0c-5.29,5.73 -3.91,8.65 -3.91,8.65c0.55,2.56 2.84,5.02 2.84,5.02c0.9,-1.2 1.05,-3.07 1.05,-3.07c0.02,-2.01 -0.74,-4.51 -0.74,-4.51c1.67,3.15 1.59,4.6 1.59,4.6c-0.08,1.53 -1.06,3.09 -1.06,3.09c2.37,-0.83 3.18,-2.9 3.18,-2.9c1.01,-1.79 -0.41,-4.29 -0.41,-4.29z" />
		<path id="Path" class="shp2" d="M16.34,73.68c0,0 3.43,4.56 7.61,4.31c0,0 4.59,0.3 8.43,-3.22c0,0 -3.9,0.44 -6.87,-0.71c0,0 -2.81,-1.08 -7.32,-6.85c0,0 4.09,3.54 7.93,5.23c0,0 3.7,1.33 6.88,0.71c0,0 -2.5,-6.48 -6.99,-9.8c0,0 -4.47,-5.33 -20.01,0.12z" />
		<path id="Path" class="shp1" d="M29.32,26.95c0,0 -0.01,7.57 4.65,10.63c0,0 4.61,3.96 11.39,3.24c0,0 -4.42,-2.61 -6.64,-6.17c0,0 -2.11,-3.37 -2.31,-12.98c0,0 1.52,6.94 4.22,11.75c0,0 2.84,4.32 6.64,6.17c0,0 2.39,-8.74 0.29,-15.7c0,0 -0.53,-8.99 -21.03,-15.89z" />
		<path id="Path" class="shp2" d="M12.4,21.27c0,0 0,4.35 2.67,6.11c0,0 2.65,2.28 6.55,1.86c0,0 -2.54,-1.5 -3.81,-3.55c0,0 -1.21,-1.94 -1.33,-7.47c0,0 0.87,3.99 2.43,6.76c0,0 1.63,2.48 3.81,3.55c0,0 1.37,-5.03 0.17,-9.03c0,0 -0.31,-5.17 -12.09,-9.13z" />
		<path id="Path" class="shp1" d="M20.98,61.61c0,0 1.17,10.11 7.86,13.4c0,0 6.78,4.5 15.73,2.36c0,0 -6.31,-2.72 -9.83,-7.09c0,0 -3.34,-4.14 -5.11,-16.95c0,0 3.11,9.02 7.47,14.98c0,0 4.46,5.29 9.83,7.09c0,0 1.82,-12.09 -2.06,-21.03c0,0 -2.11,-11.92 -30.57,-17.59z" />
		<path id="Path" class="shp3" d="M52,85c5.91,5.23 11,17 11,17c-4.47,-13.6 -3.18,-33.65 -3.18,-33.65c-4.08,9.99 -7.82,16.65 -7.82,16.65z" />
	</g>
</svg>